# This file uses centimeters as units for non-parametric coordinates.

mtllib Trono.mtl
g default
v 0.056928 0.000000 -1.512044
v -0.020317 0.000000 -1.529675
v -0.082264 0.000000 -1.480274
v -0.082264 0.000000 -1.401042
v -0.020317 0.000000 -1.351642
v 0.056928 0.000000 -1.369272
v 0.091306 0.000000 -1.440658
v 0.078362 0.071386 -1.538921
v -0.027967 0.071386 -1.563190
v -0.113237 0.071386 -1.495190
v -0.113237 0.071386 -1.386126
v -0.027967 0.071386 -1.318126
v 0.078362 0.071386 -1.342395
v 0.125683 0.071386 -1.440658
v 0.126524 0.089016 -1.599314
v -0.045156 0.089016 -1.638499
v -0.182833 0.089016 -1.528706
v -0.182833 0.089016 -1.352610
v -0.045156 0.089016 -1.242817
v 0.126524 0.089016 -1.282002
v 0.202929 0.089016 -1.440658
v 0.131169 0.027602 -1.655501
v -0.024962 0.027602 -1.691137
v -0.238644 0.039616 -1.555583
v -0.238644 0.039616 -1.325733
v -0.058940 0.039616 -1.182424
v 0.165147 0.039616 -1.233570
v 0.264875 0.039616 -1.440658
v 0.131169 -0.027602 -1.655501
v -0.024962 -0.027602 -1.691137
v -0.238644 -0.039616 -1.555583
v -0.238644 -0.039616 -1.325733
v -0.058940 -0.039616 -1.182424
v 0.165147 -0.039616 -1.233570
v 0.264875 -0.039616 -1.440658
v 0.126524 -0.089016 -1.599314
v -0.045156 -0.089016 -1.638499
v -0.182833 -0.089016 -1.528706
v -0.182833 -0.089016 -1.352610
v -0.045156 -0.089016 -1.242817
v 0.126524 -0.089016 -1.282002
v 0.202929 -0.089016 -1.440658
v 0.078362 -0.071386 -1.538921
v -0.027967 -0.071386 -1.563190
v -0.113237 -0.071386 -1.495190
v -0.113237 -0.071386 -1.386126
v -0.027967 -0.071386 -1.318126
v 0.078362 -0.071386 -1.342395
v 0.125683 -0.071386 -1.440658
v 0.194900 0.023687 -1.985768
v 0.060916 0.023687 -2.016349
v 0.194900 -0.023687 -1.985768
v 0.060916 -0.023687 -2.016349
v 0.214295 0.023687 -2.070744
v 0.080311 0.023687 -2.101325
v 0.214295 -0.023687 -2.070744
v 0.080311 -0.023687 -2.101325
v 0.347976 0.022899 -2.666716
v 0.218449 0.022899 -2.696280
v 0.347976 -0.022899 -2.666716
v 0.218449 -0.022899 -2.696280
v 0.377599 0.022593 -1.923801
v 0.377599 -0.022593 -1.923801
v 0.405788 -0.022593 -2.047304
v 0.405788 0.022593 -2.047304
v -0.130577 0.022593 -2.039788
v -0.130577 -0.022593 -2.039788
v -0.102388 0.022593 -2.163291
v -0.102388 -0.022593 -2.163291
vt 0.958931 0.506378
vt 0.958931 0.463006
vt 0.998008 0.454840
vt 0.998008 0.514543
vt 0.919854 0.514543
vt 0.919854 0.454840
vt 0.958931 0.435963
vt 0.998008 0.417617
vt 0.958931 0.533420
vt 0.998008 0.551767
vt 0.919854 0.417617
vt 0.919854 0.551767
vt 0.825134 0.516145
vt 0.825134 0.477068
vt 0.864211 0.462355
vt 0.864211 0.516145
vt 0.786056 0.516145
vt 0.786056 0.462355
vt 0.825134 0.555222
vt 0.864211 0.569935
vt 0.786056 0.569935
vt 0.793714 0.080314
vt 0.793714 0.206136
vt 0.750341 0.206136
vt 0.750341 0.080314
vt 0.820756 0.095027
vt 0.820756 0.191423
vt 0.787137 0.280339
vt 0.756918 0.280339
vt 0.723299 0.191423
vt 0.723299 0.095027
vt 0.793714 0.001865
vt 0.750341 0.001865
vt 0.784994 0.458363
vt 0.759061 0.458363
vt 0.898957 0.300263
vt 0.898957 0.413625
vt 0.855585 0.413625
vt 0.855585 0.300263
vt 0.926000 0.300263
vt 0.926000 0.387113
vt 0.828543 0.387113
vt 0.828543 0.300263
vt 0.892381 0.182657
vt 0.862161 0.182657
vt 0.926000 0.213414
vt 0.828543 0.213414
vt 0.864305 0.001865
vt 0.890238 0.001865
vt 0.491761 0.902162
vt 0.467026 0.902162
vt 0.467026 0.834555
vt 0.491761 0.834555
vt 0.436156 0.834555
vt 0.460891 0.834555
vt 0.460891 0.902162
vt 0.436156 0.902162
vt 0.959719 0.328106
vt 0.933786 0.328106
vt 0.934217 0.001865
vt 0.959288 0.001865
vt 0.966918 0.001865
vt 0.992851 0.001865
vt 0.992420 0.327549
vt 0.967350 0.327549
vt 0.117319 0.210300
vt 0.175524 0.197015
vt 0.201888 0.230075
vt 0.107909 0.251525
vt 0.201428 0.143225
vt 0.243713 0.143225
vt 0.204431 0.260832
vt 0.118963 0.280339
vt 0.070641 0.173076
vt 0.032544 0.191423
vt 0.175524 0.089435
vt 0.201888 0.056375
vt 0.239318 0.441623
vt 0.165974 0.458363
vt 0.001992 0.206136
vt 0.070641 0.113374
vt 0.032544 0.095027
vt 0.117319 0.076150
vt 0.107909 0.034925
vt 0.249935 0.488140
vt 0.176591 0.504880
vt 0.100364 0.001865
vt 0.223031 0.029863
vt 0.339329 0.407702
vt 0.354760 0.475309
vt 0.323113 0.814380
vt 0.252209 0.830564
vt 0.076580 0.538801
vt 0.061149 0.471194
vt 0.001992 0.080314
vt 0.468660 0.580904
vt 0.562640 0.602354
vt 0.536275 0.635414
vt 0.478070 0.622129
vt 0.479715 0.552090
vt 0.565182 0.571597
vt 0.604464 0.689204
vt 0.562179 0.689204
vt 0.393295 0.641006
vt 0.431392 0.659353
vt 0.526725 0.374066
vt 0.600069 0.390806
vt 0.362743 0.626293
vt 0.562640 0.776054
vt 0.536275 0.742994
vt 0.393295 0.737402
vt 0.431392 0.719055
vt 0.537342 0.327549
vt 0.610686 0.344289
vt 0.468660 0.797504
vt 0.478070 0.756279
vt 0.421900 0.361235
vt 0.437331 0.293628
vt 0.612960 0.001865
vt 0.683864 0.018049
vt 0.715511 0.357120
vt 0.700080 0.424727
vt 0.583782 0.802566
vt 0.461115 0.830564
vt 0.362743 0.752115
vt 0.597630 0.873632
vt 0.639915 0.873632
vt 0.651649 0.912710
vt 0.593443 0.912710
vt 0.593443 0.834555
vt 0.651649 0.834555
vt 0.575574 0.873632
vt 0.533289 0.873632
vt 0.529102 0.834555
vt 0.587308 0.834555
vt 0.587308 0.912710
vt 0.529102 0.912710
vt 0.497896 0.905460
vt 0.497896 0.834555
vt 0.522967 0.834555
vt 0.522967 0.905460
vt 0.913718 0.417617
vt 0.913718 0.540284
vt 0.870346 0.540284
vt 0.870346 0.417617
vt 0.715785 0.934566
vt 0.689852 0.934566
vt 0.690451 0.834555
vt 0.715186 0.834555
vt 0.779921 0.567180
vt 0.753988 0.567180
vt 0.754587 0.462355
vt 0.779322 0.462355
vt 0.721920 0.462355
vt 0.747853 0.462355
vt 0.747254 0.567180
vt 0.722519 0.567180
vt 0.657784 0.834555
vt 0.683717 0.834555
vt 0.683118 0.934566
vt 0.658383 0.934566
vn -0.204135 0.398033 0.894371
vn -0.204135 0.398033 0.894371
vn -0.204135 0.398033 0.894371
vn -0.204135 0.398033 0.894371
vn 0.571972 0.398033 0.717230
vn 0.571972 0.398033 0.717230
vn 0.571972 0.398033 0.717230
vn 0.571972 0.398033 0.717230
vn 0.917371 0.398032 0.000000
vn 0.917371 0.398032 0.000000
vn 0.917371 0.398032 0.000000
vn 0.917371 0.398032 0.000000
vn 0.571972 0.398033 -0.717229
vn 0.571972 0.398033 -0.717229
vn 0.571972 0.398033 -0.717230
vn 0.571972 0.398033 -0.717230
vn -0.204135 0.398033 -0.894371
vn -0.204135 0.398033 -0.894371
vn -0.204135 0.398033 -0.894371
vn -0.204135 0.398033 -0.894371
vn -0.826523 0.398032 -0.398033
vn -0.826523 0.398032 -0.398033
vn -0.826523 0.398032 -0.398033
vn -0.826523 0.398032 -0.398033
vn -0.826523 0.398032 0.398032
vn -0.826523 0.398032 0.398032
vn -0.826523 0.398032 0.398032
vn -0.826523 0.398032 0.398032
vn -0.054645 0.969378 0.239417
vn -0.054645 0.969378 0.239417
vn -0.054645 0.969378 0.239417
vn -0.054645 0.969378 0.239417
vn 0.153113 0.969378 0.191998
vn 0.153113 0.969378 0.191998
vn 0.153113 0.969378 0.191998
vn 0.153113 0.969378 0.191998
vn 0.245574 0.969378 0.000000
vn 0.245574 0.969378 0.000000
vn 0.245574 0.969378 0.000000
vn 0.245574 0.969378 0.000000
vn 0.153113 0.969378 -0.191997
vn 0.153113 0.969378 -0.191997
vn 0.153113 0.969378 -0.191997
vn 0.153113 0.969378 -0.191997
vn -0.054645 0.969378 -0.239416
vn -0.054645 0.969378 -0.239416
vn -0.054645 0.969378 -0.239416
vn -0.054645 0.969378 -0.239416
vn -0.221254 0.969378 -0.106550
vn -0.221254 0.969378 -0.106550
vn -0.221254 0.969378 -0.106550
vn -0.221254 0.969378 -0.106550
vn -0.221254 0.969378 0.106550
vn -0.221254 0.969378 0.106550
vn -0.221254 0.969378 0.106550
vn -0.221254 0.969378 0.106550
vn 0.164678 0.672544 -0.721503
vn 0.164678 0.672544 -0.721503
vn 0.164678 0.672544 -0.721503
vn 0.164678 0.672544 -0.721503
vn -0.438257 0.612747 -0.657626
vn -0.438257 0.612747 -0.657626
vn -0.438257 0.612747 -0.657626
vn -0.438257 0.612747 -0.657626
vn -0.662789 0.748806 -0.000000
vn -0.662789 0.748806 -0.000000
vn -0.662789 0.748806 -0.000000
vn -0.662789 0.748806 -0.000000
vn -0.413243 0.748805 0.518190
vn -0.413243 0.748805 0.518190
vn -0.413243 0.748805 0.518190
vn -0.413243 0.748805 0.518190
vn 0.147485 0.748806 0.646172
vn 0.147485 0.748806 0.646172
vn 0.147485 0.748806 0.646172
vn 0.147485 0.748806 0.646172
vn 0.597153 0.748806 0.287574
vn 0.597153 0.748806 0.287574
vn 0.597153 0.748806 0.287574
vn 0.597153 0.748806 0.287574
vn 0.680191 0.612745 -0.402349
vn 0.680191 0.612745 -0.402349
vn 0.680191 0.612745 -0.402349
vn 0.680191 0.612745 -0.402349
vn 0.222520 0.000000 -0.974928
vn 0.222520 0.000000 -0.974928
vn 0.222520 0.000000 -0.974928
vn 0.222520 0.000000 -0.974928
vn -0.535678 0.000000 -0.844423
vn -0.535678 0.000000 -0.844423
vn -0.535678 0.000000 -0.844423
vn -0.535678 0.000000 -0.844423
vn -1.000000 0.000000 -0.000000
vn -1.000000 0.000000 -0.000000
vn -1.000000 0.000000 -0.000000
vn -1.000000 0.000000 -0.000000
vn -0.623490 0.000000 0.781831
vn -0.623490 0.000000 0.781831
vn -0.623490 0.000000 0.781831
vn -0.623490 0.000000 0.781831
vn 0.222521 0.000000 0.974928
vn 0.222521 0.000000 0.974928
vn 0.222521 0.000000 0.974928
vn 0.222521 0.000000 0.974928
vn 0.900969 0.000000 0.433884
vn 0.900969 0.000000 0.433884
vn 0.900969 0.000000 0.433884
vn 0.900969 0.000000 0.433884
vn 0.849010 0.000000 -0.528377
vn 0.849010 0.000000 -0.528377
vn 0.849010 0.000000 -0.528377
vn 0.849010 0.000000 -0.528377
vn 0.164678 -0.672544 -0.721503
vn 0.164678 -0.672544 -0.721503
vn 0.164678 -0.672544 -0.721503
vn 0.164678 -0.672544 -0.721503
vn -0.438257 -0.612747 -0.657626
vn -0.438257 -0.612747 -0.657626
vn -0.438257 -0.612747 -0.657626
vn -0.438257 -0.612747 -0.657626
vn -0.662789 -0.748806 -0.000000
vn -0.662789 -0.748806 -0.000000
vn -0.662789 -0.748806 -0.000000
vn -0.662789 -0.748806 -0.000000
vn -0.413243 -0.748805 0.518190
vn -0.413243 -0.748805 0.518190
vn -0.413243 -0.748805 0.518190
vn -0.413243 -0.748805 0.518190
vn 0.147485 -0.748806 0.646172
vn 0.147485 -0.748806 0.646172
vn 0.147485 -0.748806 0.646172
vn 0.147485 -0.748806 0.646172
vn 0.597153 -0.748806 0.287574
vn 0.597153 -0.748806 0.287574
vn 0.597153 -0.748806 0.287574
vn 0.597153 -0.748806 0.287574
vn 0.680191 -0.612745 -0.402349
vn 0.680191 -0.612745 -0.402349
vn 0.680191 -0.612745 -0.402349
vn 0.680191 -0.612745 -0.402349
vn -0.054645 -0.969378 0.239417
vn -0.054645 -0.969378 0.239417
vn -0.054645 -0.969378 0.239417
vn -0.054645 -0.969378 0.239417
vn 0.153113 -0.969378 0.191998
vn 0.153113 -0.969378 0.191998
vn 0.153113 -0.969378 0.191998
vn 0.153113 -0.969378 0.191998
vn 0.245574 -0.969378 0.000000
vn 0.245574 -0.969378 0.000000
vn 0.245574 -0.969378 0.000000
vn 0.245574 -0.969378 0.000000
vn 0.153113 -0.969378 -0.191997
vn 0.153113 -0.969378 -0.191997
vn 0.153113 -0.969378 -0.191997
vn 0.153113 -0.969378 -0.191997
vn -0.054646 -0.969378 -0.239417
vn -0.054646 -0.969378 -0.239417
vn -0.054646 -0.969378 -0.239417
vn -0.054646 -0.969378 -0.239417
vn -0.221254 -0.969378 -0.106551
vn -0.221254 -0.969378 -0.106551
vn -0.221254 -0.969378 -0.106551
vn -0.221254 -0.969378 -0.106551
vn -0.221254 -0.969378 0.106550
vn -0.221254 -0.969378 0.106550
vn -0.221254 -0.969378 0.106550
vn -0.221254 -0.969378 0.106550
vn -0.204135 -0.398033 0.894371
vn -0.204135 -0.398033 0.894371
vn -0.204135 -0.398033 0.894371
vn -0.204135 -0.398033 0.894371
vn 0.571971 -0.398033 0.717230
vn 0.571971 -0.398033 0.717230
vn 0.571971 -0.398033 0.717230
vn 0.571971 -0.398033 0.717230
vn 0.917371 -0.398032 0.000000
vn 0.917371 -0.398032 0.000000
vn 0.917371 -0.398032 0.000000
vn 0.917371 -0.398032 0.000000
vn 0.571971 -0.398033 -0.717230
vn 0.571971 -0.398033 -0.717230
vn 0.571971 -0.398033 -0.717230
vn 0.571972 -0.398033 -0.717230
vn -0.204135 -0.398033 -0.894371
vn -0.204135 -0.398033 -0.894371
vn -0.204135 -0.398033 -0.894371
vn -0.204135 -0.398033 -0.894371
vn -0.826523 -0.398032 -0.398033
vn -0.826523 -0.398032 -0.398033
vn -0.826523 -0.398032 -0.398033
vn -0.826523 -0.398032 -0.398033
vn -0.826523 -0.398032 0.398032
vn -0.826523 -0.398032 0.398032
vn -0.826523 -0.398032 0.398032
vn -0.826523 -0.398032 0.398032
vn 0.002592 0.999932 -0.011354
vn 0.002592 0.999932 -0.011354
vn 0.002990 0.999974 -0.006504
vn 0.000129 0.999974 -0.007157
vn 0.981886 0.000000 0.189472
vn 0.981886 0.000000 0.189472
vn 0.981886 0.000000 0.189472
vn 0.981886 0.000000 0.189472
vn 0.002592 -0.999932 -0.011354
vn 0.002592 -0.999932 -0.011354
vn 0.000129 -0.999974 -0.007157
vn 0.002990 -0.999974 -0.006504
vn -0.966858 0.000000 -0.255316
vn -0.966858 0.000000 -0.255316
vn -0.966858 0.000000 -0.255316
vn -0.966858 0.000000 -0.255316
vn 0.001249 0.999999 -0.000653
vn -0.000842 0.999999 -0.001130
vn 0.974928 0.000000 0.222520
vn 0.974928 0.000000 0.222520
vn 0.974928 0.000000 0.222520
vn 0.974928 0.000000 0.222520
vn -0.000842 -0.999999 -0.001130
vn 0.001249 -0.999999 -0.000653
vn -0.974928 0.000000 -0.222521
vn -0.974928 0.000000 -0.222521
vn -0.974928 0.000000 -0.222521
vn -0.974928 0.000000 -0.222521
vn 0.000287 0.999999 -0.001258
vn 0.000287 0.999999 -0.001258
vn 0.975754 0.000000 0.218869
vn 0.975754 0.000000 0.218869
vn 0.975754 0.000000 0.218869
vn 0.975754 0.000000 0.218869
vn 0.000287 -0.999999 -0.001258
vn 0.000287 -0.999999 -0.001258
vn -0.974089 0.000000 -0.226166
vn -0.974089 0.000000 -0.226166
vn -0.974089 0.000000 -0.226166
vn -0.974089 0.000000 -0.226166
vn -0.321202 0.000000 0.947011
vn -0.321202 0.000000 0.947011
vn -0.321202 0.000000 0.947011
vn -0.321202 0.000000 0.947011
vn 0.005558 -0.999984 0.001269
vn 0.005558 -0.999984 0.001269
vn 0.121499 0.000000 -0.992592
vn 0.121499 0.000000 -0.992592
vn 0.121499 0.000000 -0.992592
vn 0.121499 0.000000 -0.992592
vn 0.005558 0.999984 0.001269
vn 0.005558 0.999984 0.001269
vn -0.121498 0.000000 0.992592
vn -0.121498 0.000000 0.992592
vn -0.121498 0.000000 0.992592
vn -0.121498 0.000000 0.992592
vn -0.005558 0.999984 -0.001269
vn -0.005558 0.999984 -0.001269
vn 0.321200 0.000000 -0.947011
vn 0.321200 0.000000 -0.947011
vn 0.321200 0.000000 -0.947011
vn 0.321200 0.000000 -0.947011
vn -0.005558 -0.999984 -0.001269
vn -0.005558 -0.999984 -0.001269
s off
g pTorus1
usemtl lambert6SG
f 2/126/1 1/127/2 8/128/3 9/129/4
f 3/2/5 2/7/6 9/8/7 10/3/8
f 4/1/9 3/2/10 10/3/11 11/4/12
f 5/9/13 4/1/14 11/4/15 12/10/16
f 6/132/17 5/133/18 12/134/19 13/135/20
f 7/13/21 6/14/22 13/15/23 14/16/24
f 1/19/25 7/13/26 14/16/27 8/20/28
f 9/66/29 8/67/30 15/68/31 16/69/32
f 10/74/33 9/66/34 16/69/35 17/75/36
f 11/81/37 10/74/38 17/75/39 18/82/40
f 12/83/41 11/81/42 18/82/43 19/84/44
f 13/76/45 12/83/46 19/84/47 20/77/48
f 14/70/49 13/76/50 20/77/51 21/71/52
f 8/67/53 14/70/54 21/71/55 15/68/56
f 16/69/57 15/68/58 22/72/59 23/73/60
f 17/75/61 16/69/62 23/73/63 24/80/64
f 18/26/65 17/27/66 24/23/67 25/22/68
f 19/84/69 18/82/70 25/95/71 26/87/72
f 20/77/73 19/84/74 26/87/75 27/88/76
f 21/40/77 20/41/78 27/37/79 28/36/80
f 15/46/81 21/40/82 28/36/83 22/44/84
f 59/138/85 58/139/86 60/140/87 61/141/88
f 24/23/89 23/28/90 30/29/91 31/24/92
f 25/22/93 24/23/94 31/24/95 32/25/96
f 26/32/97 25/22/98 32/25/99 33/33/100
f 27/142/101 26/143/102 33/144/103 34/145/104
f 28/36/105 27/37/106 34/38/107 35/39/108
f 22/44/109 28/36/110 35/39/111 29/45/112
f 30/100/113 29/101/114 36/97/115 37/96/116
f 31/108/117 30/100/118 37/96/119 38/104/120
f 32/25/121 31/24/122 38/30/123 39/31/124
f 33/124/125 32/125/126 39/111/127 40/115/128
f 34/123/129 33/124/130 40/115/131 41/109/132
f 35/39/133 34/38/134 41/42/135 42/43/136
f 29/45/137 35/39/138 42/43/139 36/47/140
f 37/96/141 36/97/142 43/98/143 44/99/144
f 38/104/145 37/96/146 44/99/147 45/105/148
f 39/111/149 38/104/150 45/105/151 46/112/152
f 40/115/153 39/111/154 46/112/155 47/116/156
f 41/109/157 40/115/158 47/116/159 48/110/160
f 42/102/161 41/109/162 48/110/163 49/103/164
f 36/97/165 42/102/166 49/103/167 43/98/168
f 44/130/169 43/131/170 1/127/171 2/126/172
f 45/6/173 44/11/174 2/7/175 3/2/176
f 46/5/177 45/6/178 3/2/179 4/1/180
f 47/12/181 46/5/182 4/1/183 5/9/184
f 48/136/185 47/137/186 5/133/187 6/132/188
f 49/17/189 48/18/190 6/14/191 7/13/192
f 43/21/193 49/17/194 7/13/195 1/19/196
s 1
f 23/73/197 22/72/198 50/78/199 51/79/200
s off
f 22/44/201 29/45/202 52/48/203 50/49/204
s 2
f 29/101/205 30/100/206 53/106/207 52/107/208
s off
f 30/29/209 23/28/210 51/34/211 53/35/212
s 1
f 51/79/200 50/78/199 54/85/213 55/86/214
s off
f 62/50/215 63/51/216 64/52/217 65/53/218
s 2
f 52/107/208 53/106/207 57/113/219 56/114/220
s off
f 67/54/221 66/55/222 68/56/223 69/57/224
s 1
f 55/86/214 54/85/213 58/91/225 59/92/226
s off
f 54/58/227 56/59/228 60/60/229 58/61/230
s 2
f 56/114/220 57/113/219 61/119/231 60/120/232
s off
f 57/62/233 55/63/234 59/64/235 61/65/236
f 50/146/237 52/147/238 63/148/239 62/149/240
s 2
f 52/107/208 56/114/220 64/121/241 63/122/242
s off
f 56/150/243 54/151/244 65/152/245 64/153/246
s 1
f 54/85/213 50/78/199 62/89/247 65/90/248
s off
f 53/154/249 51/155/250 66/156/251 67/157/252
s 1
f 51/79/200 55/86/214 68/93/253 66/94/254
s off
f 55/158/255 57/159/256 69/160/257 68/161/258
s 2
f 57/113/219 53/106/207 67/117/259 69/118/260
