# Blender v2.80 (sub 74) OBJ File: 'bush2.blend'
# www.blender.org
mtllib bush2.mtl
o Icosphere
v -0.540172 -0.175605 -1.662503
v 0.008308 2.636219 2.048924
v -1.341277 2.262415 -1.830087
v 1.197600 2.636216 -1.662504
v 1.951214 2.636215 0.625246
v 0.203150 3.716567 -0.625245
v -0.203150 -0.849649 0.625245
v -0.008308 0.230698 2.048923
v 1.946077 0.230705 0.641057
v 0.961917 -0.765544 0.000000
v -1.951214 0.230703 0.625246
v -1.618817 -0.246023 -0.565402
v 1.211061 0.230703 -1.652723
v 2.397032 1.556514 -0.000000
v 0.740726 1.556514 2.279713
v -2.043238 2.252585 1.196189
v -2.397032 1.310404 -0.000000
v 0.740726 1.556514 -2.279713
v 0.778203 3.632466 0.565397
v -0.961917 3.632462 -0.000000
vt 0.272727 0.000000
vt 0.250000 0.118096
vt 0.340601 0.117562
vt 0.454545 0.000000
vt 0.386671 0.117562
vt 0.500000 0.078731
vt 0.318592 0.288606
vt 0.681202 0.157461
vt 0.636363 0.236191
vt 0.818181 0.236191
vt 0.863020 0.157461
vt 0.985060 0.289045
vt 0.454545 0.236191
vt 0.499383 0.157461
vt 0.864252 0.314921
vt 0.682434 0.314921
vt 0.727272 0.393651
vt 0.954545 0.393651
vt 0.106898 0.289045
vt 0.181818 0.393651
vt 0.500616 0.314921
vt 0.386671 0.432483
vt 0.590909 0.393651
vt 0.522419 0.432483
vt 0.318182 0.393651
vt 0.863635 0.393651
vt 0.909090 0.472382
vt 0.181818 0.236191
vt 0.135747 0.157461
vt 0.000000 0.157461
vt 0.136363 0.078731
vt 0.067874 0.039899
vt 0.636363 0.078731
vt 0.841216 0.039899
vt 0.772726 0.078731
vn -0.1933 -0.9485 -0.2510
vn -0.0764 -0.9594 -0.2714
vn -0.6779 -0.2698 -0.6838
vn 0.8090 0.0090 0.5878
vn -0.3543 0.0375 0.9344
vn -0.2571 -0.1501 -0.9547
vn 0.8090 0.0090 -0.5878
vn 0.4741 0.5971 0.6470
vn -0.3665 0.7566 0.5415
vn -0.8469 0.4948 -0.1948
vn -0.0493 0.6678 -0.7427
vn 0.6391 0.7398 -0.2105
vn 0.5941 0.7701 -0.2325
vn -0.3353 0.7862 -0.5191
vn -0.0271 0.9961 0.0835
vn -0.1598 0.8559 0.4918
vn 0.8240 0.4974 -0.2714
vn 0.8090 -0.0063 -0.5878
vn -0.0167 0.5015 -0.8650
vn -0.8170 0.5452 -0.1877
vn -0.3743 -0.0560 0.9256
vn 0.5128 0.4974 0.6998
vn 0.8090 -0.0063 0.5878
vn 0.0972 -0.3971 -0.9126
vn -0.8019 -0.1959 -0.5645
vn -0.9031 -0.4212 -0.0835
vn -0.9093 -0.1509 0.3878
vn -0.5728 -0.2468 0.7817
vn 0.5287 -0.4264 0.7339
vn 0.8614 -0.4264 -0.2760
vn 0.2004 -0.8521 -0.4834
vn -0.5161 -0.8351 0.1903
vn -0.4272 -0.6912 0.5829
vn 0.7639 -0.5971 -0.2448
vn 0.3439 -0.7701 0.5373
vn 0.3933 -0.7398 0.5459
usemtl None
s off
f 7/1/1 12/2/1 1/3/1
f 7/4/2 1/5/2 10/6/2
f 1/3/3 12/2/3 3/7/3
f 9/8/4 14/9/4 15/10/4
f 8/11/5 15/10/5 16/12/5
f 1/3/6 3/7/6 18/13/6
f 13/14/7 18/13/7 14/9/7
f 2/15/8 5/16/8 19/17/8
f 16/12/9 2/15/9 20/18/9
f 3/7/10 16/19/10 20/20/10
f 4/21/11 3/7/11 6/22/11
f 5/16/12 4/21/12 19/23/12
f 19/23/13 4/21/13 6/24/13
f 6/22/14 3/7/14 20/25/14
f 20/18/15 19/26/15 6/27/15
f 20/18/16 2/15/16 19/26/16
f 14/9/17 4/21/17 5/16/17
f 14/9/18 18/13/18 4/21/18
f 18/13/19 3/7/19 4/21/19
f 17/28/20 16/19/20 3/7/20
f 16/12/21 15/10/21 2/15/21
f 15/10/22 5/16/22 2/15/22
f 15/10/23 14/9/23 5/16/23
f 13/14/24 1/3/24 18/13/24
f 3/7/25 12/2/25 17/28/25
f 12/2/26 11/29/26 17/28/26
f 17/28/27 11/29/27 16/19/27
f 11/29/28 8/30/28 16/19/28
f 8/11/29 9/8/29 15/10/29
f 9/8/30 13/14/30 14/9/30
f 10/6/31 1/5/31 13/14/31
f 12/31/32 7/32/32 11/29/32
f 7/32/33 8/30/33 11/29/33
f 9/8/34 10/33/34 13/14/34
f 7/34/35 10/35/35 8/11/35
f 10/35/36 9/8/36 8/11/36
